# xmcd CD database file
#
# Track frame offsets:
#	150
#	14195
#	31627
#	46441
#	62290
#	76612
#	94385
#	109164
#	125419
#	141427
#	160376
#	172232
#	188722
#	207263
#
# Disc length: 2972 seconds
#
# Revision: 1
# Processed by: cddbd v1.5.2PL0 Copyright (c) Steve Scherf et al.
# Submitted via: CDex 1.70beta2
#
DISCID=c00b9a0e
DTITLE=Cesar Menotti e Fabiano - Memórias Anos 80
DYEAR=2014
DGENRE=Country
TTITLE0=Memórias
TTITLE1=Chora peito and Ausência
TTITLE2=Espinhos da Vida and Pedaço de minha vida (part Tio Alalino)
TTITLE3=Meus Pedaços
TTITLE4=De igual pra igual
TTITLE5=Fim de noite
TTITLE6=Seu amor ainda é tudo and Ainda ontem chorei de saudade
TTITLE7=Deixa eu te amar por favor
TTITLE8=Esperando você chegar and São Tantas coisas
TTITLE9=Sonhei com você
TTITLE10=Camisa branca (part Tia Neiva)
TTITLE11=Pedacinhos
TTITLE12=No rancho fundo
TTITLE13=Filho Pródigo
EXTD=YEAR: 2014
EXTT0=
EXTT1=
EXTT2=
EXTT3=
EXTT4=
EXTT5=
EXTT6=
EXTT7=
EXTT8=
EXTT9=
EXTT10=
EXTT11=
EXTT12=
EXTT13=
PLAYORDER=
